<svg width="24" height="22" viewBox="0 0 24 22" fill="none" xmlns="http://www.w3.org/2000/svg">
<path d="M17.4439 10.8443C16.1473 8.83043 14.8858 6.83068 13.4842 4.61264C13.2048 4.22227 13.0664 3.74784 13.0917 3.26773C13.1303 2.76149 13.1303 2.25303 13.0917 1.74679C13.0395 1.26823 12.8117 0.826373 12.4527 0.507417C12.0938 0.188461 11.6295 0.0152776 11.1504 0.0216476C10.9121 0.0216476 10.6668 0.0216476 10.4495 0.0216476H10.0711H9.73469C9.25751 0.0233039 8.79818 0.20405 8.4468 0.528423C8.09542 0.852797 7.87737 1.29738 7.83542 1.77495V3.5001H5.22131V2.84525C5.22131 2.44389 5.22131 2.02845 5.22131 1.63413C5.16094 1.17445 4.93364 0.753399 4.58307 0.451868C4.2325 0.150336 3.7834 -0.0104072 3.32204 0.000522928C2.81744 0.000522928 2.3689 0.000522928 1.92037 0.000522928C1.43187 -0.00576457 0.95975 0.177314 0.602126 0.511709C0.244502 0.846103 0.0288813 1.30609 7.79121e-05 1.79608C7.79121e-05 7.76014 7.79121e-05 13.9284 7.79121e-05 19.984V21.2726C-0.00182159 21.4006 0.0310437 21.5267 0.0951394 21.6373C0.159235 21.7479 0.252136 21.8389 0.363851 21.9005C0.475566 21.962 0.601869 21.9918 0.729175 21.9866C0.856481 21.9815 0.979974 21.9415 1.08637 21.8711C1.16063 21.7991 1.21945 21.7126 1.25922 21.617C1.29899 21.5213 1.31887 21.4185 1.31765 21.3148V19.8573H7.84243V21.2092C7.83197 21.3243 7.84593 21.4402 7.88338 21.5495C7.92083 21.6587 7.98093 21.7587 8.05969 21.8429C8.1952 21.9426 8.36183 21.9901 8.52925 21.9767C8.94274 21.9767 9.16701 21.7162 9.16701 21.2303V12.7102L9.50341 13.1679L9.60153 13.3017C9.6358 13.341 9.6663 13.3834 9.69264 13.4285L10.9261 15.3296L12.0194 17.0618C12.9025 18.4701 13.8136 19.8784 14.6896 21.2867C14.8245 21.5249 15.0256 21.7185 15.2684 21.8435C15.5111 21.9686 15.7849 22.0198 16.0562 21.9908C18.5933 21.9345 20.913 21.9345 22.9384 21.9908H23.0576C23.2178 22.0129 23.3809 21.995 23.5326 21.9385C23.6842 21.8819 23.8195 21.7887 23.9266 21.6669C24.0668 21.4345 24.0037 21.0895 23.7584 20.6952L17.4439 10.8443ZM7.78636 14.8015H1.38072V12.33H7.78636V14.8015ZM7.78636 18.6039H1.3597V16.1605H7.78636V18.6039ZM1.31064 2.9227C1.31064 2.803 1.31064 2.67625 1.31064 2.55655C1.31064 2.31714 1.31064 2.09182 1.31064 1.85241C1.31064 1.28206 1.83627 1.21164 2.27079 1.21164C3.40614 1.21164 3.84066 1.26797 3.8757 1.83833C3.90068 2.10531 3.90068 2.37406 3.8757 2.64105V3.48601H1.33867V3.40152C1.35323 3.23754 1.35323 3.07259 1.33867 2.90862M1.33867 8.54174H4.4644C4.63961 8.54174 4.84986 8.54174 5.06712 8.54174H5.17925C5.62614 8.47897 6.08156 8.52981 6.50384 8.68961C6.89301 8.94623 7.19019 9.3213 7.35185 9.7599C7.44295 9.92889 7.54107 10.1049 7.63919 10.2598L7.67423 10.3162L7.88448 11.1048H1.33867V8.54174ZM1.38072 7.27429V4.74642H3.91775C4.04249 4.74771 4.16233 4.79537 4.25415 4.88021C4.6326 5.47169 5.01105 6.06316 5.41754 6.67577L5.78898 7.2602L1.38072 7.27429ZM22.1885 20.8149H20.4715C19.7707 20.8149 19.1329 20.8149 18.4811 20.8149C17.8293 20.8149 17.1706 20.8149 16.5118 20.8149C16.3345 20.8286 16.1571 20.7899 16.0014 20.7036C15.8458 20.6173 15.7186 20.4871 15.6357 20.329C14.463 18.4936 13.2949 16.6534 12.1315 14.8086L8.62737 9.28812L6.12538 5.3379L6.06932 5.24636C6.06932 5.18299 5.99222 5.10553 5.95718 5.02808L5.78898 4.7253H7.42193C8.8236 4.7253 10.1412 4.7253 11.5008 4.7253C11.6662 4.70778 11.833 4.7399 11.9802 4.81761C12.1274 4.89531 12.2483 5.01511 12.3278 5.16187C12.9585 6.16879 13.5893 7.16162 14.22 8.1615C15.3764 9.99226 16.5748 11.8934 17.7242 13.7946L22.1885 20.8149ZM9.13197 3.2114V2.01436C9.13197 1.54259 9.4053 1.31022 9.93793 1.24685C11.0172 1.16235 11.5989 1.24685 11.7461 1.8172C11.7507 1.84518 11.7507 1.87372 11.7461 1.9017V3.5001H9.20205L9.14599 3.30294C9.13862 3.26575 9.13862 3.22746 9.14599 3.19027" fill="#A38555"/>
</svg>
